<?xml version="1.0" encoding="utf-8"?>
<!-- Generator: Adobe Illustrator 21.0.2, SVG Export Plug-In . SVG Version: 6.00 Build 0)  -->
<svg version="1.1" id="Layer_1" xmlns="http://www.w3.org/2000/svg" xmlns:xlink="http://www.w3.org/1999/xlink" x="0px" y="0px"
	 viewBox="0 0 300 200" style="enable-background:new 0 0 300 200;" xml:space="preserve">
<style type="text/css">
	.st0{fill:#58595B;}
	.st1{fill:#FFFFFF;}
	.st2{fill:#E6E7E8;}
</style>
<g>
	<path class="st0" d="M4.9,0.9v179h290.3V0.9H4.9z M221.9,140.8c0,0,0,10.9-2.7,15.1c-2.7,4.2-13.6,4.8-13.6,4.8s-69.1,3-82.3,3
		c-13.2,0-82.3-3-82.3-3s-10.9-0.6-13.6-4.8c-2.7-4.2-2.7-15.1-2.7-15.1S23,108.4,23,93c0-15.4,3.2-50,3.2-50s1.5-14.4,4.2-16.8
		c2.7-2.4,15.2-2.1,15.2-2.1s50.4-2.8,77.6-2.8c27.2,0,77.6,2.8,77.6,2.8s12.5-0.3,15.2,2.1c2.7,2.4,4.2,16.8,4.2,16.8
		s3.2,34.6,3.2,50C223.4,108.4,221.9,140.8,221.9,140.8z"/>
	<path class="st1" d="M228.2,12.2h-210c-2,0-3.6,1.6-3.6,3.6v154c0,2,1.6,3.6,3.6,3.6h210c2,0,3.6-1.6,3.6-3.6v-154
		C231.9,13.9,230.2,12.2,228.2,12.2z M221.9,140.8c0,0,0,10.9-2.7,15.1c-2.7,4.2-13.6,4.8-13.6,4.8s-69.1,3-82.3,3
		c-13.2,0-82.3-3-82.3-3s-10.9-0.6-13.6-4.8c-2.7-4.2-2.7-15.1-2.7-15.1S23,108.4,23,93c0-15.4,3.2-50,3.2-50s1.5-14.4,4.2-16.8
		c2.7-2.4,15.2-2.1,15.2-2.1s50.4-2.8,77.6-2.8c27.2,0,77.6,2.8,77.6,2.8s12.5-0.3,15.2,2.1c2.7,2.4,4.2,16.8,4.2,16.8
		s3.2,34.6,3.2,50C223.4,108.4,221.9,140.8,221.9,140.8z"/>
	<path class="st1" d="M289.5,171.1c0,1.3-1.1,2.4-2.4,2.4h-45.6c-1.3,0-2.4-1.1-2.4-2.4V16.7c0-1.3,1.1-2.4,2.4-2.4h45.6
		c1.3,0,2.4,1.1,2.4,2.4V171.1z"/>
	<rect x="239.1" y="93.9" class="st2" width="50.4" height="71.2"/>
	<polygon class="st0" points="300,189.2 0.1,189.2 4.9,181.1 295.2,181.1 	"/>
	<polygon class="st0" points="277.2,198.9 14.6,198.9 12.2,190.4 279.6,190.4 	"/>
	<rect x="240.6" y="87.2" class="st0" width="46.6" height="4.4"/>
	<rect x="240.6" y="80.8" class="st0" width="46.6" height="4.4"/>
	<rect x="240.6" y="74.3" class="st0" width="46.6" height="4.4"/>
	<rect x="240.6" y="67.9" class="st0" width="46.6" height="4.4"/>
	<rect x="240.6" y="61.4" class="st0" width="46.6" height="4.4"/>
	<rect x="240.6" y="55" class="st0" width="46.6" height="4.4"/>
	<rect x="240.6" y="48.5" class="st0" width="46.6" height="4.4"/>
	<rect x="240.6" y="42.1" class="st0" width="46.6" height="4.4"/>
	<rect x="240.6" y="35.6" class="st0" width="46.6" height="4.4"/>
	<rect x="240.6" y="29.2" class="st0" width="46.6" height="4.4"/>
	<rect x="240.6" y="22.7" class="st0" width="46.6" height="4.4"/>
	<rect x="240.6" y="16.3" class="st0" width="46.6" height="4.4"/>
	<g>
		<ellipse transform="matrix(0.866 -0.5 0.5 0.866 -20.9158 147.2583)" class="st0" cx="264.3" cy="112.7" rx="15.3" ry="15.3"/>
		<path class="st1" d="M270.2,122.8c-5.6,3.2-12.7,1.3-16-4.3c-3.2-5.6-1.3-12.7,4.3-16c5.6-3.2,12.7-1.3,16,4.3
			C277.7,112.4,275.7,119.6,270.2,122.8z"/>
		
			<rect x="251.9" y="109.5" transform="matrix(0.8661 -0.4998 0.4998 0.8661 -20.9228 147.2027)" class="st0" width="24.8" height="6.4"/>
	</g>
	<g>
		<ellipse transform="matrix(0.866 -0.5 0.5 0.866 -37.9243 151.8234)" class="st0" cx="264.3" cy="146.7" rx="15.3" ry="15.3"/>
		<path class="st1" d="M270.2,156.8c-5.6,3.2-12.7,1.3-16-4.3c-3.2-5.6-1.3-12.7,4.3-16c5.6-3.2,12.7-1.3,16,4.3
			C277.7,146.4,275.7,153.6,270.2,156.8z"/>
		
			<rect x="251.9" y="143.5" transform="matrix(0.8661 -0.4999 0.4999 0.8661 -37.9255 151.7831)" class="st0" width="24.8" height="6.4"/>
	</g>
</g>
</svg>
